<svg version="1.1" id="Layer_1" xmlns="http://www.w3.org/2000/svg" xmlns:xlink="http://www.w3.org/1999/xlink" x="0px" y="0px"
	 width="100%" viewBox="0 0 1080 1080" enable-background="new 0 0 1080 1080" xml:space="preserve">
<path fill="#014AAD" opacity="1.000000" stroke="none" 
	d="
M707.000000,1081.000000 
	C471.360474,1081.000000 236.220947,1081.000000 1.040705,1081.000000 
	C1.040705,721.068665 1.040705,361.137360 1.040705,1.103019 
	C360.889740,1.103019 720.779541,1.103019 1080.834717,1.103019 
	C1080.834717,360.999939 1080.834717,720.999939 1080.834717,1081.000000 
	C956.470215,1081.000000 831.985107,1081.000000 707.000000,1081.000000 
M462.776794,874.392456 
	C464.572723,874.605896 466.368561,875.004700 468.164642,875.005859 
	C519.149963,875.038696 570.135376,875.043396 621.120667,874.984436 
	C623.023132,874.982178 624.924744,874.297058 627.496948,873.539490 
	C652.352905,868.379395 662.890869,855.395325 662.892639,829.897217 
	C662.896851,768.255493 662.893982,706.613831 662.894043,644.972107 
	C662.894043,643.046326 662.894043,641.120483 662.894043,639.221191 
	C645.919861,639.221191 629.654053,639.221191 612.885498,639.221191 
	C612.885498,641.427917 612.885498,643.379028 612.885498,645.330200 
	C612.885315,706.805298 612.887939,768.280457 612.882324,829.755554 
	C612.881287,840.984436 609.290222,844.739624 597.961731,844.763977 
	C562.476318,844.840271 526.990417,844.843872 491.505005,844.759399 
	C480.367645,844.732910 476.850464,841.048279 476.849457,830.071289 
	C476.843842,768.429565 476.846436,706.787903 476.846252,645.146179 
	C476.846252,643.206116 476.846283,641.266052 476.846283,639.333984 
	C459.845825,639.333984 443.457367,639.333984 426.824524,639.333984 
	C426.824524,641.030945 426.824463,642.352173 426.824493,643.673462 
	C426.825317,706.481384 426.818085,769.289246 426.852081,832.097168 
	C426.853699,835.086548 427.014557,838.106445 427.453003,841.059814 
	C429.699646,856.192932 438.286987,866.099243 452.652954,871.062195 
	C455.781189,872.142883 459.013428,872.922607 462.776794,874.392456 
M138.741669,874.487976 
	C139.380264,874.653381 140.018433,874.961487 140.657486,874.963318 
	C154.980057,875.003967 169.302780,875.031250 183.625229,874.983765 
	C184.720352,874.980103 185.813568,874.403015 187.541718,873.510254 
	C187.541718,837.124634 187.541718,800.739014 187.541718,764.381958 
	C233.442474,764.381958 278.330017,764.381958 323.746918,764.381958 
	C323.746918,766.655823 323.746918,768.619751 323.746918,770.583679 
	C323.746826,803.068359 323.740479,835.552979 323.761871,868.037659 
	C323.763184,870.022888 323.983856,872.008057 324.739136,874.494873 
	C325.544739,874.669067 326.350006,874.993042 327.156036,874.994995 
	C341.154633,875.029907 355.153473,875.049133 369.151886,874.988770 
	C370.416901,874.983276 371.679504,874.409729 373.384735,873.773438 
	C373.595459,873.476135 373.806213,873.178833 374.507904,872.242249 
	C374.676605,870.767761 374.992432,869.293335 374.992889,867.818787 
	C375.017029,793.348511 375.021973,718.878296 374.966187,644.408081 
	C374.964905,642.685486 374.245422,640.963379 372.954834,639.068298 
	C356.687347,639.068298 340.419861,639.068298 323.477112,639.068298 
	C323.477112,670.909363 323.477112,702.256592 323.477112,733.501221 
	C277.891266,733.501221 232.987808,733.501221 187.630371,733.501221 
	C187.630371,701.919495 187.630371,670.668884 187.630371,639.324219 
	C170.797150,639.324219 154.422440,639.324219 137.808456,639.324219 
	C137.808456,641.012085 137.808456,642.333130 137.808456,643.654236 
	C137.808563,718.943115 137.806961,794.231995 137.821091,869.520874 
	C137.821381,871.009949 138.005966,872.499023 138.741669,874.487976 
M717.768799,874.494751 
	C719.240173,874.674438 720.711548,875.010559 722.182983,875.011169 
	C783.001404,875.036499 843.819824,875.041199 904.638184,874.983032 
	C906.370300,874.981384 908.101746,874.271790 910.473999,873.477051 
	C912.255310,873.057617 914.049866,872.687195 915.815857,872.211121 
	C935.087952,867.016174 944.934631,854.431458 945.027466,834.594604 
	C945.110107,816.937439 945.199524,799.276306 944.919434,781.622742 
	C944.713684,768.654602 938.777710,758.697449 927.587769,752.012756 
	C925.212280,750.593689 922.707275,749.391296 919.577393,747.724487 
	C933.552429,741.320862 940.630737,730.419495 941.500488,716.189209 
	C942.321899,702.751770 942.553284,689.156860 941.488098,675.754944 
	C940.017639,657.254517 930.107788,646.163269 912.045349,641.863586 
	C904.033691,639.956421 895.591431,639.117493 887.339050,639.082214 
	C832.367310,638.846802 777.394104,638.960083 722.421326,638.959961 
	C720.660217,638.959961 718.899048,638.959900 716.859680,638.959900 
	C716.859680,640.996765 716.859619,642.311768 716.859619,643.626709 
	C716.859863,718.922729 716.858459,794.218689 716.872498,869.514709 
	C716.872742,871.004333 717.054504,872.493958 717.768799,874.494751 
M472.069580,601.166992 
	C473.462891,599.101074 474.979889,597.106995 476.228912,594.957214 
	C482.917572,583.445190 489.545044,571.897583 496.183167,560.356262 
	C507.222260,541.163208 518.276611,521.978882 529.271240,502.760315 
	C531.975769,498.032745 534.124939,493.144592 530.978943,487.712524 
	C519.465881,467.833435 508.066406,447.887146 496.372467,428.115021 
	C492.083557,420.863281 487.439545,421.132202 482.853821,428.338257 
	C482.407593,429.039429 482.023804,429.780243 481.608398,430.501160 
	C464.819763,459.637756 447.943146,488.724365 431.322021,517.956238 
	C428.302246,523.267212 424.431244,525.313538 418.412476,525.289734 
	C377.434998,525.127686 336.456207,525.116272 295.478882,525.296570 
	C289.540222,525.322632 285.935425,523.067871 283.067657,518.030884 
	C263.959229,484.469269 244.649246,451.022461 225.488739,417.490356 
	C222.735840,412.672577 219.089172,410.410645 213.369003,410.465698 
	C192.715439,410.664490 172.058563,410.511353 151.402939,410.518188 
	C149.745819,410.518738 148.038284,410.507477 146.440750,410.876495 
	C140.744308,412.192291 137.072906,418.808716 139.509186,423.053772 
	C168.343979,473.296722 197.123871,523.571289 226.028809,573.773804 
	C231.497971,583.272705 237.450668,592.493164 243.758438,602.399231 
	C245.218857,602.604675 246.679214,602.989380 248.139725,602.989929 
	C320.980652,603.019287 393.821564,603.024231 466.662476,602.963806 
	C468.365997,602.962402 470.068878,602.185181 472.069580,601.166992 
M611.766174,602.310242 
	C613.216370,602.544617 614.666443,602.983459 616.116760,602.984131 
	C689.320374,603.017700 762.523987,603.023499 835.727539,602.952515 
	C837.382202,602.950928 839.035889,602.032776 840.870300,600.899841 
	C842.090942,599.121948 843.439148,597.417664 844.513733,595.555542 
	C876.890930,539.448608 909.038940,483.207642 941.796631,427.324005 
	C947.192688,418.118530 940.873047,410.000397 931.727905,410.323761 
	C911.256714,411.047546 890.740173,410.717285 870.246887,410.450287 
	C864.083984,410.369995 860.402100,412.860565 857.451599,418.028107 
	C838.378601,451.433319 819.079468,484.709442 800.010742,518.117065 
	C797.108765,523.201172 793.322876,525.297852 787.481689,525.277588 
	C746.155334,525.134277 704.828064,525.149414 663.501587,525.268860 
	C658.064148,525.284607 654.524109,523.363342 651.789185,518.568848 
	C631.739075,483.419250 611.509277,448.372162 591.334595,413.293640 
	C553.143127,346.888916 514.882629,280.523651 476.866791,214.018570 
	C473.176270,207.562363 468.712067,204.997101 461.286377,205.019501 
	C391.964508,205.228714 322.641541,205.226364 253.319687,205.021484 
	C245.920624,204.999619 241.332718,207.479950 237.647217,213.946152 
	C205.404877,270.515137 172.918823,326.945251 140.507416,383.417938 
	C137.241272,389.108765 138.903137,394.286316 145.069016,396.787109 
	C147.001663,397.570953 149.277176,397.783203 151.397079,397.789185 
	C171.893661,397.847046 192.391708,397.678040 212.886566,397.869537 
	C218.981613,397.926483 222.819565,395.404663 225.755768,390.259583 
	C244.739532,356.994537 263.939728,323.852692 282.834320,290.537384 
	C286.031158,284.900665 290.032837,282.706696 296.498383,282.741760 
	C336.657562,282.959747 376.819550,282.994904 416.977997,282.717804 
	C424.267273,282.667511 428.568085,285.305145 432.146240,291.541168 
	C480.795532,376.326508 529.606628,461.019135 578.440552,545.698425 
	C589.248901,564.440308 600.300720,583.041626 611.766174,602.310242 
M837.202148,354.352142 
	C843.994690,366.198792 850.879517,377.993958 857.536133,389.916504 
	C860.340393,394.939209 864.100403,397.295166 870.019531,397.235352 
	C890.514282,397.028290 911.012573,397.186462 931.509521,397.180420 
	C943.157166,397.177002 947.029724,390.433136 941.211121,380.282349 
	C928.044739,357.313232 914.865356,334.351593 901.675049,311.396210 
	C882.509766,278.042725 863.313049,244.707275 844.176147,211.337479 
	C841.433594,206.555099 837.643921,204.007782 831.982910,204.325775 
	C828.494385,204.521729 824.985962,204.365189 821.486511,204.365189 
	C754.496460,204.365234 687.506409,204.388519 620.516418,204.317429 
	C615.499695,204.312103 611.243835,205.330383 608.589417,209.940842 
	C590.061157,242.122330 571.532959,274.303864 553.060303,306.517242 
	C550.331604,311.275757 549.830139,316.063538 552.826538,321.164185 
	C563.961060,340.117889 574.835632,359.224182 585.947144,378.191528 
	C591.229553,387.208557 595.756287,387.138580 601.001770,378.252533 
	C601.255737,377.822296 601.475708,377.372162 601.725098,376.939087 
	C618.431152,347.933624 635.214966,318.972412 651.775452,289.884094 
	C654.758545,284.644531 658.527954,282.400848 664.620850,282.427368 
	C705.447327,282.605286 746.275452,282.620239 787.101685,282.412781 
	C793.377075,282.380890 797.251892,284.513947 800.328552,289.996124 
	C812.308594,311.343109 824.635254,332.495636 837.202148,354.352142 
z"/>
<path fill="#FCFDFF" opacity="1.000000" stroke="none" 
	d="
M611.240417,601.707642 
	C600.300720,583.041626 589.248901,564.440308 578.440552,545.698425 
	C529.606628,461.019135 480.795532,376.326508 432.146240,291.541168 
	C428.568085,285.305145 424.267273,282.667511 416.977997,282.717804 
	C376.819550,282.994904 336.657562,282.959747 296.498383,282.741760 
	C290.032837,282.706696 286.031158,284.900665 282.834320,290.537384 
	C263.939728,323.852692 244.739532,356.994537 225.755768,390.259583 
	C222.819565,395.404663 218.981613,397.926483 212.886566,397.869537 
	C192.391708,397.678040 171.893661,397.847046 151.397079,397.789185 
	C149.277176,397.783203 147.001663,397.570953 145.069016,396.787109 
	C138.903137,394.286316 137.241272,389.108765 140.507416,383.417938 
	C172.918823,326.945251 205.404877,270.515137 237.647217,213.946152 
	C241.332718,207.479950 245.920624,204.999619 253.319687,205.021484 
	C322.641541,205.226364 391.964508,205.228714 461.286377,205.019501 
	C468.712067,204.997101 473.176270,207.562363 476.866791,214.018570 
	C514.882629,280.523651 553.143127,346.888916 591.334595,413.293640 
	C611.509277,448.372162 631.739075,483.419250 651.789185,518.568848 
	C654.524109,523.363342 658.064148,525.284607 663.501587,525.268860 
	C704.828064,525.149414 746.155334,525.134277 787.481689,525.277588 
	C793.322876,525.297852 797.108765,523.201172 800.010742,518.117065 
	C819.079468,484.709442 838.378601,451.433319 857.451599,418.028107 
	C860.402100,412.860565 864.083984,410.369995 870.246887,410.450287 
	C890.740173,410.717285 911.256714,411.047546 931.727905,410.323761 
	C940.873047,410.000397 947.192688,418.118530 941.796631,427.324005 
	C909.038940,483.207642 876.890930,539.448608 844.513733,595.555542 
	C843.439148,597.417664 842.090942,599.121948 840.344116,601.256836 
	C832.667603,601.676697 825.517212,601.795593 818.366882,601.793823 
	C749.324707,601.776672 680.282593,601.739258 611.240417,601.707642 
z"/>
<path fill="#FCFDFF" opacity="1.000000" stroke="none" 
	d="
M837.017578,354.036316 
	C824.635254,332.495636 812.308594,311.343109 800.328552,289.996124 
	C797.251892,284.513947 793.377075,282.380890 787.101685,282.412781 
	C746.275452,282.620239 705.447327,282.605286 664.620850,282.427368 
	C658.527954,282.400848 654.758545,284.644531 651.775452,289.884094 
	C635.214966,318.972412 618.431152,347.933624 601.725098,376.939087 
	C601.475708,377.372162 601.255737,377.822296 601.001770,378.252533 
	C595.756287,387.138580 591.229553,387.208557 585.947144,378.191528 
	C574.835632,359.224182 563.961060,340.117889 552.826538,321.164185 
	C549.830139,316.063538 550.331604,311.275757 553.060303,306.517242 
	C571.532959,274.303864 590.061157,242.122330 608.589417,209.940842 
	C611.243835,205.330383 615.499695,204.312103 620.516418,204.317429 
	C687.506409,204.388519 754.496460,204.365234 821.486511,204.365189 
	C824.985962,204.365189 828.494385,204.521729 831.982910,204.325775 
	C837.643921,204.007782 841.433594,206.555099 844.176147,211.337479 
	C863.313049,244.707275 882.509766,278.042725 901.675049,311.396210 
	C914.865356,334.351593 928.044739,357.313232 941.211121,380.282349 
	C947.029724,390.433136 943.157166,397.177002 931.509521,397.180420 
	C911.012573,397.186462 890.514282,397.028290 870.019531,397.235352 
	C864.100403,397.295166 860.340393,394.939209 857.536133,389.916504 
	C850.879517,377.993958 843.994690,366.198792 837.017578,354.036316 
z"/>
<path fill="#FCFDFF" opacity="1.000000" stroke="none" 
	d="
M243.180252,601.842102 
	C237.450668,592.493164 231.497971,583.272705 226.028809,573.773804 
	C197.123871,523.571289 168.343979,473.296722 139.509186,423.053772 
	C137.072906,418.808716 140.744308,412.192291 146.440750,410.876495 
	C148.038284,410.507477 149.745819,410.518738 151.402939,410.518188 
	C172.058563,410.511353 192.715439,410.664490 213.369003,410.465698 
	C219.089172,410.410645 222.735840,412.672577 225.488739,417.490356 
	C244.649246,451.022461 263.959229,484.469269 283.067657,518.030884 
	C285.935425,523.067871 289.540222,525.322632 295.478882,525.296570 
	C336.456207,525.116272 377.434998,525.127686 418.412476,525.289734 
	C424.431244,525.313538 428.302246,523.267212 431.322021,517.956238 
	C447.943146,488.724365 464.819763,459.637756 481.608398,430.501160 
	C482.023804,429.780243 482.407593,429.039429 482.853821,428.338257 
	C487.439545,421.132202 492.083557,420.863281 496.372467,428.115021 
	C508.066406,447.887146 519.465881,467.833435 530.978943,487.712524 
	C534.124939,493.144592 531.975769,498.032745 529.271240,502.760315 
	C518.276611,521.978882 507.222260,541.163208 496.183167,560.356262 
	C489.545044,571.897583 482.917572,583.445190 476.228912,594.957214 
	C474.979889,597.106995 473.462891,599.101074 471.475098,601.441772 
	C468.051575,601.745178 465.222534,601.798340 462.393524,601.799011 
	C389.322449,601.816711 316.251343,601.828979 243.180252,601.842102 
z"/>
<path fill="#FDFEFF" opacity="1.000000" stroke="none" 
	d="
M717.151611,873.983582 
	C717.054504,872.493958 716.872742,871.004333 716.872498,869.514709 
	C716.858459,794.218689 716.859863,718.922729 716.859619,643.626709 
	C716.859619,642.311768 716.859680,640.996765 716.859680,638.959900 
	C718.899048,638.959900 720.660217,638.959961 722.421326,638.959961 
	C777.394104,638.960083 832.367310,638.846802 887.339050,639.082214 
	C895.591431,639.117493 904.033691,639.956421 912.045349,641.863586 
	C930.107788,646.163269 940.017639,657.254517 941.488098,675.754944 
	C942.553284,689.156860 942.321899,702.751770 941.500488,716.189209 
	C940.630737,730.419495 933.552429,741.320862 919.577393,747.724487 
	C922.707275,749.391296 925.212280,750.593689 927.587769,752.012756 
	C938.777710,758.697449 944.713684,768.654602 944.919434,781.622742 
	C945.199524,799.276306 945.110107,816.937439 945.027466,834.594604 
	C944.934631,854.431458 935.087952,867.016174 915.815857,872.211121 
	C914.049866,872.687195 912.255310,873.057617 909.703979,873.638672 
	C906.438416,873.858521 903.942993,873.966980 901.447510,873.967468 
	C840.015564,873.979797 778.583557,873.980652 717.151611,873.983582 
M892.011475,767.896545 
	C892.011475,767.896545 892.357788,767.596069 892.070190,767.015747 
	C891.122498,766.573181 890.174805,766.130615 889.017761,765.986816 
	C889.017761,765.986816 889.238770,765.696289 888.679810,765.151367 
	C885.229553,764.751343 881.780090,764.012024 878.328857,764.003662 
	C843.046814,763.917908 807.764526,763.950867 772.482300,763.950623 
	C770.716187,763.950623 768.950012,763.950562 767.276917,763.950562 
	C767.026306,765.070435 766.828247,765.543213 766.827820,766.016113 
	C766.804016,791.312683 766.783264,816.609314 766.843140,841.905701 
	C766.845276,842.808472 767.662048,843.709351 769.012207,844.764832 
	C778.507202,844.774963 788.002319,844.808044 797.497253,844.790771 
	C825.645081,844.739441 853.792847,844.668274 882.721863,844.802429 
	C893.743164,843.005493 895.656494,840.830627 895.669189,829.889282 
	C895.689209,812.595154 895.788574,795.299500 895.565369,778.008240 
	C895.525208,774.892090 894.094421,771.794006 893.158752,768.836609 
	C893.158752,768.836609 893.338196,768.729004 893.237366,768.196899 
	C892.948364,768.002014 892.659302,767.807190 892.011475,767.896545 
M766.864929,722.477173 
	C766.864929,726.097168 766.864929,729.717102 766.864929,733.577393 
	C768.301758,733.690063 769.264771,733.831421 770.227783,733.831665 
	C805.858765,733.841797 841.489685,733.855225 877.120605,733.800171 
	C879.426208,733.796631 881.794678,733.494507 884.023193,732.909607 
	C888.908142,731.627136 891.836182,728.359802 891.881042,723.240723 
	C892.008057,708.756775 891.995972,694.270569 891.897888,679.786194 
	C891.862976,674.631226 888.923523,671.389526 884.059509,670.110840 
	C881.675903,669.484375 879.130737,669.226379 876.658020,669.222534 
	C841.526611,669.167847 806.395203,669.183105 771.263733,669.194458 
	C769.971436,669.194885 768.679077,669.326904 766.864929,669.426147 
	C766.864929,686.952759 766.864929,704.218872 766.864929,722.477173 
z"/>
<path fill="#FCFEFF" opacity="1.000000" stroke="none" 
	d="
M374.016937,872.881531 
	C373.806213,873.178833 373.595459,873.476135 372.703796,873.882202 
	C356.049377,873.991699 340.075928,873.992432 324.102478,873.993225 
	C323.983856,872.008057 323.763184,870.022888 323.761871,868.037659 
	C323.740479,835.552979 323.746826,803.068359 323.746918,770.583679 
	C323.746918,768.619751 323.746918,766.655823 323.746918,764.381958 
	C278.330017,764.381958 233.442474,764.381958 187.541718,764.381958 
	C187.541718,800.739014 187.541718,837.124634 186.768036,873.750549 
	C170.031082,873.989929 154.067825,873.989014 138.104568,873.988098 
	C138.005966,872.499023 137.821381,871.009949 137.821091,869.520874 
	C137.806961,794.231995 137.808563,718.943115 137.808456,643.654236 
	C137.808456,642.333130 137.808456,641.012085 137.808456,639.324219 
	C154.422440,639.324219 170.797150,639.324219 187.630371,639.324219 
	C187.630371,670.668884 187.630371,701.919495 187.630371,733.501221 
	C232.987808,733.501221 277.891266,733.501221 323.477112,733.501221 
	C323.477112,702.256592 323.477112,670.909363 323.477112,639.068298 
	C340.419861,639.068298 356.687347,639.068298 373.374451,639.598145 
	C373.791809,716.221191 373.788269,792.314392 373.796906,868.407532 
	C373.797089,869.898865 373.940399,871.390198 374.016937,872.881531 
z"/>
<path fill="#FDFEFF" opacity="1.000000" stroke="none" 
	d="
M462.197754,873.840942 
	C459.013428,872.922607 455.781189,872.142883 452.652954,871.062195 
	C438.286987,866.099243 429.699646,856.192932 427.453003,841.059814 
	C427.014557,838.106445 426.853699,835.086548 426.852081,832.097168 
	C426.818085,769.289246 426.825317,706.481384 426.824493,643.673462 
	C426.824463,642.352173 426.824524,641.030945 426.824524,639.333984 
	C443.457367,639.333984 459.845825,639.333984 476.846283,639.333984 
	C476.846283,641.266052 476.846252,643.206116 476.846252,645.146179 
	C476.846436,706.787903 476.843842,768.429565 476.849457,830.071289 
	C476.850464,841.048279 480.367645,844.732910 491.505005,844.759399 
	C526.990417,844.843872 562.476318,844.840271 597.961731,844.763977 
	C609.290222,844.739624 612.881287,840.984436 612.882324,829.755554 
	C612.887939,768.280457 612.885315,706.805298 612.885498,645.330200 
	C612.885498,643.379028 612.885498,641.427917 612.885498,639.221191 
	C629.654053,639.221191 645.919861,639.221191 662.894043,639.221191 
	C662.894043,641.120483 662.894043,643.046326 662.894043,644.972107 
	C662.893982,706.613831 662.896851,768.255493 662.892639,829.897217 
	C662.890869,855.395325 652.352905,868.379395 626.716431,873.686401 
	C571.356506,873.835815 516.777100,873.838379 462.197754,873.840942 
z"/>
<path fill="#0F488F" opacity="1.000000" stroke="none" 
	d="
M374.262421,872.561890 
	C373.940399,871.390198 373.797089,869.898865 373.796906,868.407532 
	C373.788269,792.314392 373.791809,716.221191 373.827484,639.684570 
	C374.245422,640.963379 374.964905,642.685486 374.966187,644.408081 
	C375.021973,718.878296 375.017029,793.348511 374.992889,867.818787 
	C374.992432,869.293335 374.676605,870.767761 374.262421,872.561890 
z"/>
<path fill="#114790" opacity="1.000000" stroke="none" 
	d="
M611.503296,602.008911 
	C680.282593,601.739258 749.324707,601.776672 818.366882,601.793823 
	C825.517212,601.795593 832.667603,601.676697 840.254028,601.578003 
	C839.035889,602.032776 837.382202,602.950928 835.727539,602.952515 
	C762.523987,603.023499 689.320374,603.017700 616.116760,602.984131 
	C614.666443,602.983459 613.216370,602.544617 611.503296,602.008911 
z"/>
<path fill="#114790" opacity="1.000000" stroke="none" 
	d="
M243.469345,602.120667 
	C316.251343,601.828979 389.322449,601.816711 462.393524,601.799011 
	C465.222534,601.798340 468.051575,601.745178 471.326324,601.743164 
	C470.068878,602.185181 468.365997,602.962402 466.662476,602.963806 
	C393.821564,603.024231 320.980652,603.019287 248.139725,602.989929 
	C246.679214,602.989380 245.218857,602.604675 243.469345,602.120667 
z"/>
<path fill="#184684" opacity="1.000000" stroke="none" 
	d="
M717.460205,874.239136 
	C778.583557,873.980652 840.015564,873.979797 901.447510,873.967468 
	C903.942993,873.966980 906.438416,873.858521 909.383667,873.846313 
	C908.101746,874.271790 906.370300,874.981384 904.638184,874.983032 
	C843.819824,875.041199 783.001404,875.036499 722.182983,875.011169 
	C720.711548,875.010559 719.240173,874.674438 717.460205,874.239136 
z"/>
<path fill="#184684" opacity="1.000000" stroke="none" 
	d="
M462.487244,874.116699 
	C516.777100,873.838379 571.356506,873.835815 626.381348,873.881714 
	C624.924744,874.297058 623.023132,874.982178 621.120667,874.984436 
	C570.135376,875.043396 519.149963,875.038696 468.164642,875.005859 
	C466.368561,875.004700 464.572723,874.605896 462.487244,874.116699 
z"/>
<path fill="#184684" opacity="1.000000" stroke="none" 
	d="
M138.423126,874.238037 
	C154.067825,873.989014 170.031082,873.989929 186.451004,874.041626 
	C185.813568,874.403015 184.720352,874.980103 183.625229,874.983765 
	C169.302780,875.031250 154.980057,875.003967 140.657486,874.963318 
	C140.018433,874.961487 139.380264,874.653381 138.423126,874.238037 
z"/>
<path fill="#184684" opacity="1.000000" stroke="none" 
	d="
M324.420807,874.244019 
	C340.075928,873.992432 356.049377,873.991699 372.483032,874.045532 
	C371.679504,874.409729 370.416901,874.983276 369.151886,874.988770 
	C355.153473,875.049133 341.154633,875.029907 327.156036,874.994995 
	C326.350006,874.993042 325.544739,874.669067 324.420807,874.244019 
z"/>
<path fill="#014BAD" opacity="1.000000" stroke="none" 
	d="
M881.940674,844.604858 
	C853.792847,844.668274 825.645081,844.739441 797.497253,844.790771 
	C788.002319,844.808044 778.507202,844.774963 768.527222,844.244751 
	C768.001709,819.744812 768.063782,795.764038 767.831604,771.786072 
	C767.786865,767.159912 769.287231,765.783264 773.845947,765.818665 
	C797.658875,766.003967 821.474182,765.929321 845.288513,765.895630 
	C859.938660,765.874878 874.588684,765.765686 889.238770,765.696289 
	C889.238770,765.696289 889.017761,765.986816 889.238647,766.158752 
	C890.425659,766.752502 891.391724,767.174316 892.357788,767.596069 
	C892.357788,767.596069 892.011475,767.896545 892.248779,768.015869 
	C892.770142,768.333191 893.054138,768.531128 893.338196,768.729004 
	C893.338196,768.729004 893.158752,768.836609 893.221558,769.197388 
	C893.551697,772.196411 894.039856,774.833801 894.050476,777.473145 
	C894.120117,794.783936 894.087585,812.095154 894.086609,829.406189 
	C894.085999,839.970581 893.688110,840.467834 883.389404,843.348694 
	C882.832947,843.504333 882.420288,844.174316 881.940674,844.604858 
z"/>
<path fill="#034CAC" opacity="1.000000" stroke="none" 
	d="
M766.864929,721.981079 
	C766.864929,704.218872 766.864929,686.952759 766.864929,669.426147 
	C768.679077,669.326904 769.971436,669.194885 771.263733,669.194458 
	C806.395203,669.183105 841.526611,669.167847 876.658020,669.222534 
	C879.130737,669.226379 881.675903,669.484375 884.059509,670.110840 
	C888.923523,671.389526 891.862976,674.631226 891.897888,679.786194 
	C891.995972,694.270569 892.008057,708.756775 891.881042,723.240723 
	C891.836182,728.359802 888.908142,731.627136 884.023193,732.909607 
	C881.794678,733.494507 879.426208,733.796631 877.120605,733.800171 
	C841.489685,733.855225 805.858765,733.841797 770.227783,733.831665 
	C769.264771,733.831421 768.301758,733.690063 766.864929,733.577393 
	C766.864929,729.717102 766.864929,726.097168 766.864929,721.981079 
z"/>
<path fill="#2B60A7" opacity="1.000000" stroke="none" 
	d="
M888.959290,765.423828 
	C874.588684,765.765686 859.938660,765.874878 845.288513,765.895630 
	C821.474182,765.929321 797.658875,766.003967 773.845947,765.818665 
	C769.287231,765.783264 767.786865,767.159912 767.831604,771.786072 
	C768.063782,795.764038 768.001709,819.744812 768.070679,844.167847 
	C767.662048,843.709351 766.845276,842.808472 766.843140,841.905701 
	C766.783264,816.609314 766.804016,791.312683 766.827820,766.016113 
	C766.828247,765.543213 767.026306,765.070435 767.276917,763.950562 
	C768.950012,763.950562 770.716187,763.950623 772.482300,763.950623 
	C807.764526,763.950867 843.046814,763.917908 878.328857,764.003662 
	C881.780090,764.012024 885.229553,764.751343 888.959290,765.423828 
z"/>
<path fill="#2B60A7" opacity="1.000000" stroke="none" 
	d="
M882.331299,844.703674 
	C882.420288,844.174316 882.832947,843.504333 883.389404,843.348694 
	C893.688110,840.467834 894.085999,839.970581 894.086609,829.406189 
	C894.087585,812.095154 894.120117,794.783936 894.050476,777.473145 
	C894.039856,774.833801 893.551697,772.196411 893.295044,769.122803 
	C894.094421,771.794006 895.525208,774.892090 895.565369,778.008240 
	C895.788574,795.299500 895.689209,812.595154 895.669189,829.889282 
	C895.656494,840.830627 893.743164,843.005493 882.331299,844.703674 
z"/>
<path fill="#2B60A7" opacity="1.000000" stroke="none" 
	d="
M892.213989,767.305908 
	C891.391724,767.174316 890.425659,766.752502 889.343384,766.009399 
	C890.174805,766.130615 891.122498,766.573181 892.213989,767.305908 
z"/>
<path fill="#2B60A7" opacity="1.000000" stroke="none" 
	d="
M893.287781,768.462952 
	C893.054138,768.531128 892.770142,768.333191 892.428223,767.873779 
	C892.659302,767.807190 892.948364,768.002014 893.287781,768.462952 
z"/>
</svg>